ply
format ascii 1.0
comment VCGLIB generated
element vertex 275
property float x
property float y
property float z
element face 546
property list uchar int vertex_indices
end_header
0.00379571 0.0514893 0.0543824 
-0.0301444 0.078063 0.0408029 
-0.00280195 0.0662784 0.056739 
-0.0371714 0.0687279 0.042276 
-0.00324173 0.0758247 0.0587403 
-0.0237368 0.0827633 0.0564403 
-0.0535204 0.0899256 0.0461269 
-0.0411216 0.0930517 0.0432705 
-0.0604991 0.102985 0.0422928 
0.0116535 0.1025 0.0473697 
-0.0350331 0.107006 0.0389823 
-0.0120156 0.101305 0.0440878 
0.0117377 0.109579 0.0396217 
-0.0204675 0.106671 0.0423891 
-0.0498738 0.110844 0.0373963 
-0.000605852 0.113097 0.0426479 
0.00434715 0.0423211 0.045364 
-0.0459334 0.0501981 0.0389207 
0.0194027 0.0485557 0.0418838 
0.0335412 0.0499919 0.0325317 
0.0391724 0.0583659 0.0308504 
0.0201151 0.0564822 0.0485366 
0.0479233 0.0602792 0.0316948 
0.035418 0.0602464 0.0377391 
0.00693249 0.0619263 0.0556571 
0.0203501 0.0677048 0.0492761 
0.0286922 0.109591 0.0360516 
0.0376339 0.0769464 0.0371862 
0.00424397 0.0901588 0.056179 
-0.0243759 0.183219 -0.00867494 
0.0136945 0.0947708 0.0513357 
0.00874204 0.0760301 0.0564549 
-0.0649821 0.135774 0.0404156 
0.0231561 0.0809061 0.04998 
-0.0482765 0.125699 0.0308271 
-0.0386784 0.162145 0.000122681 
0.0208061 0.0969263 0.0467998 
-0.031447 0.158894 0.00252466 
-0.054373 0.114257 0.0347196 
0.0334016 0.0903615 0.0416875 
-0.0610072 0.123763 0.0440078 
-0.0541494 0.139308 0.0288976 
0.0572344 0.0506428 0.00625402 
0.0577442 0.055342 0.0244038 
0.0596226 0.0678952 0.0220107 
0.0392305 0.0667617 -0.0115156 
0.0319913 0.0728218 -0.0189555 
0.0408634 0.101417 0.0265487 
0.044433 0.0915831 0.0239423 
0.0456841 0.0927092 0.00547402 
-0.0613573 0.156806 -0.0203752 
0.0432296 0.0809667 -0.00521345 
-0.0626282 0.160754 -0.0477175 
-0.00987747 0.17569 -0.0233454 
-0.0711937 0.181644 -0.0532921 
-0.0792841 0.17569 -0.0478584 
0.0424373 0.104063 0.00579238 
-0.0634551 0.170183 -0.0455115 
-0.068421 0.154786 0.00159583 
-0.0745535 0.155032 0.0013399 
-0.0680914 0.148166 0.0415861 
-0.0438792 0.125703 0.0210363 
-0.0473273 0.13481 0.0176933 
-0.0740834 0.174826 -0.0408477 
0.00133654 0.101253 0.0443368 
0.0290304 0.120834 0.00138319 
0.0127112 0.122811 0.0347082 
-0.0595596 0.156344 0.0084471 
-0.00549997 0.0991319 0.0515477 
-0.0863063 0.122921 -0.00295911 
-0.0741565 0.155731 0.028895 
-0.0657075 0.166379 -0.0241394 
-0.028785 0.118854 0.0300061 
-0.0536637 0.154276 0.0124142 
-0.0365917 0.124155 0.02641 
-0.0506948 0.146859 0.0119995 
-0.0271802 0.125304 0.0161445 
-0.0438215 0.129806 0.00805846 
-0.0723243 0.167917 -0.0218518 
-0.0565382 0.153182 0.0319595 
0.045735 0.0716339 0.0226139 
-0.00865797 0.124709 0.0337223 
-0.0123674 0.129723 0.021185 
0.0287022 0.121226 0.0246758 
0.00850393 0.132235 0.0182396 
-0.0730415 0.0356942 0.00797825 
-0.089426 0.0950955 0.0228582 
-0.0683092 0.0443735 0.00754082 
-0.0313698 0.0405535 0.0525582 
-0.0237923 0.0457237 0.0540197 
-0.0371661 0.048076 0.0389055 
-0.0285642 0.0534475 0.0354551 
-0.018818 0.0499861 0.0477428 
-0.0450354 0.167777 0.00280048 
-0.0526642 0.0620294 0.0302758 
-0.0780701 0.147001 0.0422493 
-0.0173786 0.0635759 0.0527412 
-0.0172898 0.0933122 0.0554761 
-0.0441088 0.070441 0.0412664 
-0.0784083 0.130369 0.0539336 
-0.0786082 0.0885848 0.0376371 
-0.0861908 0.138038 0.0449362 
-0.0714469 0.0947549 0.0421232 
-0.066753 0.0854458 0.0444891 
-0.0275833 0.0938503 0.0451626 
-0.0654569 0.0430305 0.0310236 
-0.0834446 0.110594 0.000924541 
-0.0559007 0.0420057 0.0192829 
-0.0580862 0.046139 0.0441897 
-0.0593338 0.0490118 0.00508003 
-0.0496501 0.0492062 0.0160318 
-0.052491 0.0501164 0.0278465 
-0.081114 0.155604 0.0150185 
-0.0732972 0.16903 -0.0453126 
-0.0802629 0.0705444 0.0136174 
-0.0937751 0.129732 0.0179265 
-0.0917443 0.12655 0.039624 
-0.072239 0.150662 -0.0435954 
-0.0848236 0.0862123 -0.00361877 
-0.0883602 0.135779 0.00378023 
-0.0775197 0.151543 -0.00174655 
-0.0744096 0.15469 -0.0212692 
-0.0870198 0.108573 0.0146908 
-0.0907194 0.0956154 0.0137748 
-0.0904205 0.150682 0.0241179 
-0.0888762 0.138737 0.0340916 
-0.0922907 0.145954 0.0163774 
-0.0706034 0.159954 -0.0462677 
-0.0786901 0.160889 -0.0258707 
-0.0932174 0.117321 0.0089988 
-0.0185933 0.186703 -0.0205064 
-0.0476123 0.168275 -0.00535322 
-0.0146695 0.18431 -0.0211085 
0.0465031 0.0730658 0.00559737 
-0.0522778 0.116457 -0.0159891 
-0.0276767 0.094882 -0.0248249 
-0.00695435 0.100506 -0.0240515 
-0.00188021 0.0947324 -0.0339757 
-0.0373775 0.116055 -0.0150829 
-0.0165136 0.11791 -0.0142244 
-0.00227137 0.130811 0.0021658 
0.0120288 0.129816 0.00191594 
0.0421442 0.0911858 -0.00754976 
0.0316024 0.10941 -0.0111913 
0.0610495 0.060987 0.0070958 
-0.0415733 0.125525 -0.00874608 
0.0264391 0.103278 -0.0173571 
0.0582836 0.0726006 0.00839067 
-0.0625714 0.179652 -0.060159 
0.00718007 0.115488 -0.0181102 
-0.028112 0.125208 0.00392111 
-0.0276982 0.122303 -0.00508759 
-0.00658993 0.126441 -0.00805215 
0.0119404 0.123279 -0.01044 
-0.0080532 0.0339964 -0.0242206 
0.0205745 0.0349839 -0.00196979 
0.0143576 0.034876 -0.0216995 
-0.0679135 0.0408843 -0.00479972 
-0.0932608 0.119371 0.0420013 
-0.0336258 0.0454605 -0.0292956 
-0.0529533 0.0484707 -0.00624236 
0.0103813 0.0455879 -0.0259512 
-0.0265341 0.0500507 -0.0241899 
0.0329665 0.0506031 -0.00843142 
0.0246856 0.0489604 -0.0211497 
-0.0137747 0.0508958 -0.0325741 
0.0460044 0.0504927 -0.00640673 
-0.0185938 0.0446928 -0.0283495 
-0.0321824 0.0519245 -0.00924253 
0.0151606 0.0966597 -0.0241456 
-0.0505208 0.128798 -0.00383088 
0.0190788 0.0549978 -0.0280807 
0.0519304 0.0603807 -0.00487735 
-0.0423095 0.0478786 -0.0106911 
0.0255744 0.0609294 -0.0235617 
0.00325323 0.0596734 -0.0326543 
-0.0456086 0.0649795 -0.0145187 
-0.0154835 0.0680982 -0.0381877 
0.0129175 0.105488 -0.0195877 
-0.0729645 0.115305 -0.00762777 
0.00960335 0.0731522 -0.0324494 
-0.0602303 0.120865 -0.00888193 
0.0225724 0.068242 -0.0272769 
-0.0241973 0.0727623 -0.0381034 
-0.073041 0.128053 -0.00894598 
-0.0082041 0.109561 -0.0223198 
-0.0610396 0.0722787 -0.0169554 
-0.0375669 0.162421 -0.0137308 
-0.0224483 0.106813 -0.0227412 
-0.0380032 0.104829 -0.021021 
-0.0550228 0.0996691 -0.0215021 
-0.0715665 0.0796381 -0.0165316 
-0.0766816 0.0956801 -0.0131737 
-0.037412 0.0832708 -0.021393 
-0.056585 0.0822208 -0.0216575 
-0.0226275 0.175043 -0.0218484 
-0.019978 0.0940616 -0.0344956 
-0.0812607 0.144229 -0.00064987 
-0.0661255 0.178046 -0.0612084 
0.0362338 0.0884792 -0.0165154 
0.0202205 0.0879156 -0.0267583 
-0.0116223 0.0835826 -0.0391986 
-0.0319936 0.0823444 -0.0341765 
-0.0338767 0.08576 -0.0247351 
-0.045466 0.0930813 -0.0221607 
-0.0343132 0.0336772 -0.030683 
-0.0445244 0.0361832 -0.0263893 
0.0108634 0.0343446 -0.0146108 
-0.0300445 0.0336407 -0.0222667 
-0.0296961 0.0387538 -0.0178992 
-0.0378881 0.0383488 -0.00758077 
-0.0490071 0.0335869 -0.0143182 
0.00751788 0.0392603 -0.0116056 
0.00216154 0.0335996 0.00744879 
0.0444652 0.0410685 0.00363127 
-0.00392762 0.0386038 0.0081871 
0.0311708 0.0344523 0.010571 
-0.0704661 0.0333902 -0.00525255 
-0.0434739 0.0339248 -0.00597367 
0.0216786 0.0362007 0.0118917 
-0.0545418 0.0335726 0.00651462 
-0.0928481 0.118007 0.0264847 
0.00212185 0.0342264 0.0193148 
0.0217446 0.0348153 0.0228381 
0.0268884 0.0399512 0.0310435 
0.0503997 0.0441045 0.0198164 
0.0340252 0.0384001 0.0245018 
-0.0256199 0.0380201 0.0103934 
-0.00179808 0.0384674 0.0206354 
0.0422831 0.0485451 0.0329307 
-0.0383012 0.0362848 0.0146889 
-0.0301852 0.0333877 0.0144994 
-0.0521952 0.0659134 -0.0116122 
-0.0576428 0.0586254 0.00368208 
-0.0630298 0.0340592 0.0209795 
0.00930823 0.0394401 0.0322399 
-0.036768 0.0342598 0.0318799 
0.015297 0.0350723 0.0333465 
-0.0716069 0.0735558 0.0359338 
-0.0316608 0.0383657 0.0356841 
-0.014532 0.0392767 0.0394089 
-0.0207274 0.034938 0.0446029 
-0.0843481 0.0812812 0.0276082 
-0.0676606 0.117943 0.0545218 
0.016961 0.0352976 0.0434227 
-0.0663574 0.062766 -0.00244949 
-0.0391183 0.0348659 0.0425455 
-0.0682083 0.0600844 0.0150761 
-0.0512738 0.0558141 0.0172021 
-0.0606545 0.0750045 0.0418796 
-0.0767491 0.110264 0.0455386 
-0.0831577 0.0750104 0.00488612 
-0.0883164 0.117756 0.0471917 
-0.0826507 0.110482 0.0273005 
-0.0767776 0.071772 0.0279376 
-0.0655392 0.110392 0.0370529 
-0.0669238 0.0350381 0.0384975 
-0.057051 0.0347532 0.0487715 
-0.0886889 0.111496 0.0388046 
-0.059177 0.0649727 0.0337872 
-0.0754681 0.107155 0.03538 
-0.025867 0.0353336 0.0546441 
-0.0676905 0.15481 -0.0544564 
-0.0606101 0.168368 -0.0617464 
-0.0614249 0.150445 0.00143507 
-0.0103617 0.177759 -0.0315028 
-0.0555729 0.146194 -0.00101838 
-0.0124589 0.162323 -0.0108267 
-0.0142937 0.16377 -0.0172225 
-0.0735222 0.142784 -0.00771646 
-0.063546 0.142873 -0.00667109 
-0.0328601 0.156451 -0.0108331 
-0.0347974 0.151307 -0.00147033 
-0.0515119 0.141653 0.00325361 
-0.0703734 0.145511 -0.0226787 
3 150 82 140 
3 204 135 203 
3 197 119 115 
3 126 120 197 
3 76 81 82 
3 95 101 99 
3 198 263 262 
3 274 270 269 
3 243 99 252 
3 144 43 42 
3 60 95 99 
3 49 51 142 
3 82 81 84 
3 140 82 84 
3 84 141 140 
3 64 30 9 
3 42 214 166 
3 255 102 8 
3 28 2 31 
3 4 2 28 
3 102 103 8 
3 74 72 76 
3 9 30 36 
3 76 72 81 
3 125 126 115 
3 49 133 51 
3 103 249 6 
3 8 103 6 
3 12 64 9 
3 150 76 82 
3 30 68 28 
3 24 2 0 
3 142 56 49 
3 38 255 8 
3 22 20 229 
3 98 6 249 
3 14 8 6 
3 26 12 9 
3 64 12 15 
3 94 98 259 
3 14 38 8 
3 14 61 34 
3 80 20 22 
3 221 129 122 
3 14 6 10 
3 6 98 7 
3 61 14 74 
3 26 66 12 
3 3 7 98 
3 7 10 6 
3 3 98 17 
3 268 265 53 
3 74 14 10 
3 118 251 123 
3 3 17 90 
3 74 10 72 
3 3 90 91 
3 73 79 75 
3 7 3 1 
3 104 7 1 
3 31 2 24 
3 1 3 91 
3 10 7 13 
3 80 22 44 
3 104 13 7 
3 107 105 111 
3 81 66 84 
3 91 89 92 
3 187 271 266 
3 63 78 71 
3 31 33 36 
3 15 11 64 
3 266 270 264 
3 81 72 10 
3 104 68 11 
3 50 58 264 
3 84 65 141 
3 103 238 249 
3 20 19 229 
3 10 13 81 
3 51 133 45 
3 0 92 16 
3 66 81 15 
3 16 92 89 
3 97 5 4 
3 13 11 15 
3 42 225 214 
3 96 4 5 
3 13 15 81 
3 263 52 262 
3 172 42 166 
3 0 96 92 
3 97 4 28 
3 2 96 0 
3 68 97 28 
3 144 42 172 
3 4 96 2 
3 0 16 18 
3 90 257 246 
3 204 189 188 
3 32 99 243 
3 60 99 32 
3 27 20 80 
3 47 39 27 
3 40 32 243 
3 25 33 31 
3 242 123 251 
3 243 255 40 
3 53 35 267 
3 132 35 53 
3 26 39 47 
3 19 23 18 
3 19 18 244 
3 25 27 33 
3 38 40 255 
3 41 32 40 
3 272 75 273 
3 37 272 267 
3 79 32 41 
3 40 38 34 
3 34 41 40 
3 144 44 43 
3 27 25 21 
3 268 271 195 
3 9 36 26 
3 108 257 90 
3 36 33 39 
3 27 21 23 
3 20 23 19 
3 30 31 36 
3 62 34 61 
3 192 179 190 
3 16 244 18 
3 35 37 267 
3 30 28 31 
3 27 23 20 
3 73 29 93 
3 48 27 80 
3 21 25 0 
3 60 32 79 
3 25 24 0 
3 169 137 136 
3 14 34 38 
3 27 39 33 
3 229 225 43 
3 35 73 75 
3 48 47 27 
3 37 75 272 
3 29 35 132 
3 35 75 37 
3 22 229 43 
3 25 31 24 
3 66 15 12 
3 73 35 29 
3 16 89 261 
3 83 66 26 
3 26 36 39 
3 22 43 44 
3 21 0 18 
3 23 21 18 
3 29 132 130 
3 122 123 86 
3 221 115 129 
3 155 166 214 
3 108 256 257 
3 50 52 57 
3 147 44 144 
3 71 50 57 
3 67 93 131 
3 184 179 69 
3 142 51 199 
3 46 45 174 
3 46 182 199 
3 45 163 174 
3 122 106 123 
3 271 272 273 
3 50 264 270 
3 263 57 52 
3 164 155 156 
3 52 50 270 
3 51 46 199 
3 244 224 19 
3 143 56 142 
3 119 129 115 
3 244 16 261 
3 239 231 227 
3 174 164 171 
3 133 163 45 
3 163 155 164 
3 57 263 148 
3 86 253 122 
3 197 115 126 
3 122 129 106 
3 49 48 133 
3 174 163 164 
3 46 51 45 
3 79 41 75 
3 75 41 62 
3 117 270 274 
3 47 48 56 
3 111 108 17 
3 56 48 49 
3 273 75 62 
3 42 43 225 
3 70 79 67 
3 124 70 112 
3 80 44 147 
3 78 58 71 
3 59 58 78 
3 133 80 147 
3 48 80 133 
3 67 73 93 
3 63 71 57 
3 194 186 191 
3 68 30 64 
3 77 74 76 
3 186 232 245 
3 34 62 41 
3 70 60 79 
3 95 60 70 
3 77 76 150 
3 62 61 77 
3 132 53 265 
3 112 59 120 
3 273 62 77 
3 63 57 54 
3 67 79 73 
3 124 95 70 
3 70 67 112 
3 55 78 63 
3 59 78 55 
3 83 47 56 
3 265 130 132 
3 26 47 83 
3 112 67 59 
3 61 74 77 
3 65 83 56 
3 57 148 54 
3 65 56 143 
3 67 58 59 
3 117 262 270 
3 96 91 92 
3 58 50 71 
3 198 55 54 
3 68 64 11 
3 55 63 54 
3 83 65 84 
3 66 83 84 
3 54 148 198 
3 129 119 69 
3 105 256 108 
3 125 116 101 
3 104 1 5 
3 111 248 110 
3 5 1 96 
3 255 260 102 
3 98 94 17 
3 268 272 271 
3 111 94 248 
3 111 105 108 
3 102 100 103 
3 89 90 88 
3 270 181 269 
3 102 260 100 
3 88 90 246 
3 99 101 252 
3 157 85 87 
3 118 191 251 
3 131 93 29 
3 224 226 19 
3 68 104 97 
3 89 91 90 
3 124 126 125 
3 17 94 111 
3 53 267 268 
3 87 85 234 
3 104 5 97 
3 100 86 242 
3 253 86 100 
3 69 197 184 
3 1 91 96 
3 103 100 238 
3 107 109 87 
3 185 149 136 
3 197 269 184 
3 120 126 112 
3 95 124 101 
3 107 87 234 
3 188 135 204 
3 252 116 158 
3 110 109 107 
3 116 252 101 
3 261 89 88 
3 110 233 109 
3 260 253 100 
3 126 124 112 
3 113 55 198 
3 198 262 127 
3 113 198 127 
3 265 195 130 
3 262 117 127 
3 127 117 121 
3 128 55 113 
3 242 238 100 
3 149 185 153 
3 139 138 151 
3 121 113 127 
3 233 110 248 
3 128 113 121 
3 137 196 136 
3 162 202 183 
3 195 271 187 
3 162 183 167 
3 196 202 135 
3 135 202 203 
3 193 202 162 
3 104 11 13 
3 125 101 124 
3 203 202 193 
3 59 55 128 
3 125 115 116 
3 159 206 173 
3 168 159 173 
3 173 206 211 
3 121 117 120 
3 120 59 128 
3 168 193 162 
3 158 116 221 
3 120 128 121 
3 111 110 107 
3 115 221 116 
3 201 196 137 
3 208 205 154 
3 213 215 212 
3 269 117 274 
3 120 117 269 
3 130 195 131 
3 130 131 29 
3 153 141 65 
3 138 139 189 
3 106 192 118 
3 136 188 185 
3 233 232 160 
3 141 153 140 
3 245 251 191 
3 120 269 197 
3 233 160 109 
3 159 168 162 
3 136 196 135 
3 234 85 217 
3 140 151 150 
3 90 17 108 
3 157 109 160 
3 226 216 225 
3 106 118 123 
3 197 69 119 
3 123 242 86 
3 109 157 87 
3 146 169 178 
3 198 148 263 
3 208 154 207 
3 77 170 273 
3 200 137 169 
3 163 133 172 
3 146 200 169 
3 178 143 146 
3 182 200 199 
3 236 231 239 
3 131 264 67 
3 264 58 67 
3 143 153 65 
3 172 133 147 
3 147 144 172 
3 139 152 185 
3 270 266 170 
3 135 188 136 
3 143 178 149 
3 150 145 77 
3 188 189 139 
3 179 181 134 
3 134 181 170 
3 205 206 159 
3 145 134 170 
3 152 151 140 
3 77 145 170 
3 152 139 151 
3 143 142 146 
3 199 146 142 
3 153 152 140 
3 188 139 185 
3 138 134 145 
3 189 134 138 
3 199 200 146 
3 149 153 143 
3 145 150 151 
3 138 145 151 
3 185 152 153 
3 211 157 160 
3 266 264 187 
3 236 230 231 
3 163 172 166 
3 204 194 190 
3 186 194 193 
3 159 167 205 
3 192 191 118 
3 155 163 166 
3 179 106 69 
3 170 266 273 
3 174 182 46 
3 176 173 160 
3 168 173 176 
3 211 217 157 
3 131 195 187 
3 158 221 258 
3 193 176 232 
3 180 200 182 
3 186 193 232 
3 184 269 181 
3 174 171 175 
3 182 174 175 
3 161 164 156 
3 171 164 161 
3 180 182 175 
3 176 160 232 
3 204 203 193 
3 160 173 211 
3 178 169 136 
3 175 171 161 
3 137 200 180 
3 178 136 149 
3 170 181 270 
3 165 161 167 
3 165 175 161 
3 137 180 201 
3 161 156 167 
3 264 131 187 
3 194 204 193 
3 179 134 190 
3 180 175 177 
3 177 201 180 
3 167 156 154 
3 177 175 165 
3 186 245 191 
3 190 134 189 
3 205 167 154 
3 207 209 208 
3 106 129 69 
3 265 268 195 
3 177 165 183 
3 217 85 157 
3 177 183 201 
3 190 194 191 
3 176 193 168 
3 183 165 167 
3 234 256 105 
3 191 192 190 
3 105 107 234 
3 202 201 183 
3 181 179 184 
3 162 167 159 
3 202 196 201 
3 262 52 270 
3 189 204 190 
3 213 207 155 
3 223 219 216 
3 246 236 241 
3 213 212 207 
3 261 88 246 
3 271 273 266 
3 253 221 122 
3 222 228 215 
3 207 212 209 
3 237 223 244 
3 222 215 213 
3 253 258 221 
3 261 246 241 
3 237 222 223 
3 241 237 244 
3 229 226 225 
3 252 158 258 
3 213 155 219 
3 239 215 228 
3 245 114 251 
3 258 253 260 
3 254 242 251 
3 207 154 156 
3 244 223 224 
3 250 258 260 
3 252 258 250 
3 216 214 225 
3 239 228 240 
3 242 254 238 
3 243 252 250 
3 229 19 226 
3 247 114 245 
3 254 114 247 
3 250 260 255 
3 243 250 255 
3 254 251 114 
3 233 245 232 
3 233 247 245 
3 259 254 247 
3 238 254 259 
3 261 241 244 
3 94 247 248 
3 235 228 237 
3 248 247 233 
3 219 155 216 
3 217 211 220 
3 234 217 220 
3 227 212 215 
3 249 238 259 
3 240 228 235 
3 179 192 106 
3 259 247 94 
3 211 206 205 
3 220 211 218 
3 257 256 234 
3 268 267 272 
3 211 205 218 
3 218 205 208 
3 234 236 246 
3 236 234 220 
3 257 234 246 
3 98 249 259 
3 223 216 226 
3 224 223 226 
3 210 218 209 
3 209 218 208 
3 155 207 156 
3 227 215 239 
3 216 155 214 
3 227 210 209 
3 228 222 237 
3 231 220 218 
3 231 230 220 
3 227 209 212 
3 241 236 239 
3 240 235 237 
3 240 237 241 
3 239 240 241 
3 227 231 218 
3 218 210 227 
3 230 236 220 
3 219 223 222 
3 219 222 213 
