ply
format ascii 1.0
comment VCGLIB generated
element vertex 72
property float x
property float y
property float z
element face 144
property list uchar int vertex_indices
end_header
0.35 -3.78552e-009 0.0866025 
0.25 -3.78552e-009 0.0866025 
0.2 3.82137e-016 -8.74228e-009 
0.25 3.78552e-009 -0.0866025 
0.35 3.78552e-009 -0.0866025 
0.4 0 0 
0.34641 0.2 8.74228e-009 
0.303109 0.175 0.0866025 
0.216506 0.125 0.0866025 
0.173205 0.1 -4.37114e-009 
0.216506 0.125 -0.0866025 
0.303109 0.175 -0.0866025 
0.2 0.34641 1.51421e-008 
0.175 0.303109 0.0866025 
0.125 0.216506 0.0866025 
0.1 0.173205 -1.17125e-009 
0.125 0.216506 -0.0866025 
0.175 0.303109 -0.0866025 
-1.5299e-008 0.35 0.0866025 
-1.09278e-008 0.25 0.0866025 
-8.74228e-009 0.2 -2.14387e-015 
-1.09278e-008 0.25 -0.0866025 
-1.5299e-008 0.35 -0.0866025 
-1.74846e-008 0.4 1.74846e-008 
-0.175 0.303109 0.0866025 
-0.125 0.216506 0.0866025 
-0.1 0.173205 -1.17125e-009 
-0.125 0.216506 -0.0866025 
-0.175 0.303109 -0.0866025 
-0.2 0.34641 1.51421e-008 
-0.34641 0.2 8.74228e-009 
-0.303109 0.175 0.0866025 
-0.216506 0.125 0.0866025 
-0.173205 0.1 -4.37114e-009 
-0.216506 0.125 -0.0866025 
-0.303109 0.175 -0.0866025 
-0.4 -3.49691e-008 -1.52855e-015 
-0.35 -3.43835e-008 0.0866025 
-0.25 -2.56412e-008 0.0866025 
-0.2 -1.74846e-008 -8.74228e-009 
-0.25 -1.80702e-008 -0.0866025 
-0.35 -2.68125e-008 -0.0866025 
-0.34641 -0.2 -8.74228e-009 
-0.303109 -0.175 0.0866025 
-0.216506 -0.125 0.0866025 
-0.173205 -0.1 -1.31134e-008 
-0.216506 -0.125 -0.0866025 
-0.303109 -0.175 -0.0866025 
-0.175 -0.303109 0.0866025 
-0.125 -0.216506 0.0866025 
-0.1 -0.173205 -1.63133e-008 
-0.125 -0.216506 -0.0866025 
-0.175 -0.303109 -0.0866025 
-0.2 -0.34641 -1.51421e-008 
4.76995e-009 -0.4 -1.74846e-008 
4.17371e-009 -0.35 0.0866025 
2.98122e-009 -0.25 0.0866025 
2.38498e-009 -0.2 -1.74846e-008 
2.98122e-009 -0.25 -0.0866025 
4.17371e-009 -0.35 -0.0866025 
0.175 -0.303109 0.0866025 
0.125 -0.216506 0.0866025 
0.1 -0.173205 -1.63133e-008 
0.125 -0.216506 -0.0866025 
0.175 -0.303109 -0.0866025 
0.2 -0.34641 -1.51421e-008 
0.303109 -0.175 0.0866025 
0.216506 -0.125 0.0866025 
0.173205 -0.1 -1.31134e-008 
0.216506 -0.125 -0.0866025 
0.303109 -0.175 -0.0866025 
0.34641 -0.2 -8.74228e-009 
3 7 0 5 
3 5 6 7 
3 8 1 0 
3 0 7 8 
3 9 2 1 
3 1 8 9 
3 10 3 2 
3 2 9 10 
3 11 4 3 
3 3 10 11 
3 6 5 4 
3 4 11 6 
3 13 7 6 
3 6 12 13 
3 14 8 7 
3 7 13 14 
3 15 9 8 
3 8 14 15 
3 16 10 9 
3 9 15 16 
3 17 11 10 
3 10 16 17 
3 12 6 11 
3 11 17 12 
3 18 13 12 
3 12 23 18 
3 19 14 13 
3 13 18 19 
3 20 15 14 
3 14 19 20 
3 21 16 15 
3 15 20 21 
3 22 17 16 
3 16 21 22 
3 23 12 17 
3 17 22 23 
3 24 18 23 
3 23 29 24 
3 25 19 18 
3 18 24 25 
3 26 20 19 
3 19 25 26 
3 27 21 20 
3 20 26 27 
3 28 22 21 
3 21 27 28 
3 29 23 22 
3 22 28 29 
3 31 24 29 
3 29 30 31 
3 32 25 24 
3 24 31 32 
3 33 26 25 
3 25 32 33 
3 34 27 26 
3 26 33 34 
3 35 28 27 
3 27 34 35 
3 30 29 28 
3 28 35 30 
3 37 31 30 
3 30 36 37 
3 38 32 31 
3 31 37 38 
3 39 33 32 
3 32 38 39 
3 40 34 33 
3 33 39 40 
3 41 35 34 
3 34 40 41 
3 36 30 35 
3 35 41 36 
3 43 37 36 
3 36 42 43 
3 44 38 37 
3 37 43 44 
3 45 39 38 
3 38 44 45 
3 46 40 39 
3 39 45 46 
3 47 41 40 
3 40 46 47 
3 42 36 41 
3 41 47 42 
3 48 43 42 
3 42 53 48 
3 49 44 43 
3 43 48 49 
3 50 45 44 
3 44 49 50 
3 51 46 45 
3 45 50 51 
3 52 47 46 
3 46 51 52 
3 53 42 47 
3 47 52 53 
3 55 48 53 
3 53 54 55 
3 56 49 48 
3 48 55 56 
3 57 50 49 
3 49 56 57 
3 58 51 50 
3 50 57 58 
3 59 52 51 
3 51 58 59 
3 54 53 52 
3 52 59 54 
3 60 55 54 
3 54 65 60 
3 61 56 55 
3 55 60 61 
3 62 57 56 
3 56 61 62 
3 63 58 57 
3 57 62 63 
3 64 59 58 
3 58 63 64 
3 65 54 59 
3 59 64 65 
3 66 60 65 
3 65 71 66 
3 67 61 60 
3 60 66 67 
3 68 62 61 
3 61 67 68 
3 69 63 62 
3 62 68 69 
3 70 64 63 
3 63 69 70 
3 71 65 64 
3 64 70 71 
3 0 66 71 
3 71 5 0 
3 1 67 66 
3 66 0 1 
3 2 68 67 
3 67 1 2 
3 3 69 68 
3 68 2 3 
3 4 70 69 
3 69 3 4 
3 5 71 70 
3 70 4 5 
