ply
format ascii 1.0
comment VCGLIB generated
element vertex 386
property float x
property float y
property float z
element face 768
property list uchar int vertex_indices
end_header
-2.5 -0.5 -0.5 
2.5 -0.5 -0.5 
-2.5 0.5 -0.5 
2.5 0.5 -0.5 
-2.5 -0.5 0.5 
2.5 -0.5 0.5 
-2.5 0.5 0.5 
2.5 0.5 0.5 
0 0 -0.5 
0 -0.5 -0.5 
-2.5 0 -0.5 
0 0.5 -0.5 
2.5 0 -0.5 
-2.5 0 0 
-2.5 -0.5 0 
-2.5 0 0.5 
-2.5 0.5 0 
0 -0.5 0 
2.5 -0.5 0 
0 -0.5 0.5 
0 0 0.5 
2.5 0 0.5 
0 0.5 0.5 
0 0.5 0 
2.5 0.5 0 
2.5 0 0 
0 -0.25 -0.5 
-1.25 -0.25 -0.5 
-1.25 0 -0.5 
0 0.25 -0.5 
1.25 0.25 -0.5 
1.25 0 -0.5 
-2.5 0 -0.25 
-2.5 -0.25 -0.25 
-2.5 -0.25 0 
-2.5 0 0.25 
-2.5 0.25 0.25 
-2.5 0.25 0 
-1.25 -0.5 0 
-1.25 -0.5 -0.25 
0 -0.5 -0.25 
1.25 -0.5 0 
1.25 -0.5 0.25 
0 -0.5 0.25 
1.25 0 0.5 
1.25 0.25 0.5 
0 0.25 0.5 
-1.25 0 0.5 
-1.25 -0.25 0.5 
0 -0.25 0.5 
0 0.5 0.25 
1.25 0.5 0.25 
1.25 0.5 0 
0 0.5 -0.25 
-1.25 0.5 -0.25 
-1.25 0.5 0 
2.5 0.25 0 
2.5 0.25 0.25 
2.5 0 0.25 
2.5 -0.25 0 
2.5 -0.25 -0.25 
2.5 0 -0.25 
-1.25 0.25 -0.5 
-2.5 0.25 -0.5 
1.25 -0.25 -0.5 
1.25 -0.5 -0.5 
-1.25 -0.5 -0.5 
-2.5 -0.25 -0.5 
2.5 -0.25 -0.5 
-1.25 0.5 -0.5 
1.25 0.5 -0.5 
2.5 0.25 -0.5 
-2.5 -0.25 0.25 
-2.5 -0.5 0.25 
-2.5 0.25 -0.25 
-2.5 -0.5 -0.25 
-2.5 0.5 -0.25 
-2.5 -0.25 0.5 
-2.5 0.25 0.5 
-2.5 0.5 0.25 
1.25 -0.5 -0.25 
-1.25 -0.5 0.25 
-1.25 -0.5 0.5 
2.5 -0.5 -0.25 
2.5 -0.5 0.25 
1.25 -0.5 0.5 
-1.25 0.25 0.5 
-1.25 0.5 0.5 
1.25 -0.25 0.5 
2.5 -0.25 0.5 
2.5 0.25 0.5 
1.25 0.5 0.5 
1.25 0.5 -0.25 
2.5 0.5 -0.25 
-1.25 0.5 0.25 
2.5 0.5 0.25 
2.5 -0.25 0.25 
2.5 0.25 -0.25 
-0.625 -0.25 -0.5 
-1.25 -0.125 -0.5 
-0.625 -0.125 -0.5 
0.625 0.25 -0.5 
1.25 0.125 -0.5 
0.625 0.125 -0.5 
-2.5 -0.125 -0.25 
-2.5 -0.25 -0.125 
-2.5 -0.125 -0.125 
-2.5 0.125 0.25 
-2.5 0.25 0.125 
-2.5 0.125 0.125 
-1.25 -0.5 -0.125 
-0.625 -0.5 -0.25 
-0.625 -0.5 -0.125 
1.25 -0.5 0.125 
0.625 -0.5 0.25 
0.625 -0.5 0.125 
1.25 0.125 0.5 
0.625 0.25 0.5 
0.625 0.125 0.5 
-1.25 -0.125 0.5 
-0.625 -0.25 0.5 
-0.625 -0.125 0.5 
0.625 0.5 0.25 
1.25 0.5 0.125 
0.625 0.5 0.125 
-0.625 0.5 -0.25 
-1.25 0.5 -0.125 
-0.625 0.5 -0.125 
2.5 0.25 0.125 
2.5 0.125 0.25 
2.5 0.125 0.125 
2.5 -0.25 -0.125 
2.5 -0.125 -0.25 
2.5 -0.125 -0.125 
-1.25 0.125 -0.5 
-1.875 0.125 -0.5 
-1.875 0.25 -0.5 
1.25 -0.375 -0.5 
0.625 -0.375 -0.5 
0.625 -0.25 -0.5 
-1.25 -0.375 -0.5 
-1.875 -0.375 -0.5 
-1.875 -0.25 -0.5 
1.25 -0.125 -0.5 
1.875 -0.125 -0.5 
1.875 -0.25 -0.5 
-1.25 0.375 -0.5 
-0.625 0.375 -0.5 
-0.625 0.25 -0.5 
1.25 0.375 -0.5 
1.875 0.375 -0.5 
1.875 0.25 -0.5 
-2.5 -0.25 0.125 
-2.5 -0.375 0.125 
-2.5 -0.375 0.25 
-2.5 0.25 -0.375 
-2.5 0.125 -0.375 
-2.5 0.125 -0.25 
-2.5 -0.25 -0.375 
-2.5 -0.375 -0.375 
-2.5 -0.375 -0.25 
-2.5 0.25 -0.125 
-2.5 0.375 -0.125 
-2.5 0.375 -0.25 
-2.5 -0.25 0.375 
-2.5 -0.125 0.375 
-2.5 -0.125 0.25 
-2.5 0.25 0.375 
-2.5 0.375 0.375 
-2.5 0.375 0.25 
0.625 -0.5 -0.25 
0.625 -0.5 -0.375 
1.25 -0.5 -0.375 
-1.875 -0.5 0.25 
-1.875 -0.5 0.125 
-1.25 -0.5 0.125 
-1.875 -0.5 -0.25 
-1.875 -0.5 -0.375 
-1.25 -0.5 -0.375 
-0.625 -0.5 0.25 
-0.625 -0.5 0.375 
-1.25 -0.5 0.375 
1.875 -0.5 -0.25 
1.875 -0.5 -0.125 
1.25 -0.5 -0.125 
1.875 -0.5 0.25 
1.875 -0.5 0.375 
1.25 -0.5 0.375 
-0.625 0.25 0.5 
-0.625 0.375 0.5 
-1.25 0.375 0.5 
1.875 -0.25 0.5 
1.875 -0.125 0.5 
1.25 -0.125 0.5 
1.875 0.25 0.5 
1.875 0.375 0.5 
1.25 0.375 0.5 
0.625 -0.25 0.5 
0.625 -0.375 0.5 
1.25 -0.375 0.5 
-1.875 0.25 0.5 
-1.875 0.125 0.5 
-1.25 0.125 0.5 
-1.875 -0.25 0.5 
-1.875 -0.375 0.5 
-1.25 -0.375 0.5 
1.25 0.5 -0.125 
1.875 0.5 -0.125 
1.875 0.5 -0.25 
-1.25 0.5 0.375 
-0.625 0.5 0.375 
-0.625 0.5 0.25 
1.25 0.5 0.375 
1.875 0.5 0.375 
1.875 0.5 0.25 
-1.25 0.5 0.125 
-1.875 0.5 0.125 
-1.875 0.5 0.25 
1.25 0.5 -0.375 
0.625 0.5 -0.375 
0.625 0.5 -0.25 
-1.25 0.5 -0.375 
-1.875 0.5 -0.375 
-1.875 0.5 -0.25 
2.5 -0.125 0.25 
2.5 -0.125 0.375 
2.5 -0.25 0.375 
2.5 0.375 -0.25 
2.5 0.375 -0.125 
2.5 0.25 -0.125 
2.5 0.375 0.25 
2.5 0.375 0.375 
2.5 0.25 0.375 
2.5 0.125 -0.25 
2.5 0.125 -0.375 
2.5 0.25 -0.375 
2.5 -0.375 0.25 
2.5 -0.375 0.125 
2.5 -0.25 0.125 
2.5 -0.375 -0.25 
2.5 -0.375 -0.375 
2.5 -0.25 -0.375 
0 -0.125 -0.5 
-0.625 0 -0.5 
0 -0.375 -0.5 
-0.625 -0.375 -0.5 
-1.875 -0.125 -0.5 
-1.875 0 -0.5 
0 0.125 -0.5 
0.625 0 -0.5 
0 0.375 -0.5 
0.625 0.375 -0.5 
1.875 0.125 -0.5 
1.875 0 -0.5 
-2.5 0 -0.125 
-2.5 -0.125 0 
-2.5 0 -0.375 
-2.5 -0.125 -0.375 
-2.5 -0.375 -0.125 
-2.5 -0.375 0 
-2.5 0 0.125 
-2.5 0.125 0 
-2.5 0 0.375 
-2.5 0.125 0.375 
-2.5 0.375 0.125 
-2.5 0.375 0 
-0.625 -0.5 0 
0 -0.5 -0.125 
-1.875 -0.5 0 
-1.875 -0.5 -0.125 
-0.625 -0.5 -0.375 
0 -0.5 -0.375 
0.625 -0.5 0 
0 -0.5 0.125 
1.875 -0.5 0 
1.875 -0.5 0.125 
0.625 -0.5 0.375 
0 -0.5 0.375 
0.625 0 0.5 
0 0.125 0.5 
1.875 0 0.5 
1.875 0.125 0.5 
0.625 0.375 0.5 
0 0.375 0.5 
-0.625 0 0.5 
0 -0.125 0.5 
-1.875 0 0.5 
-1.875 -0.125 0.5 
-0.625 -0.375 0.5 
0 -0.375 0.5 
0 0.5 0.125 
0.625 0.5 0 
0 0.5 0.375 
0.625 0.5 0.375 
1.875 0.5 0.125 
1.875 0.5 0 
0 0.5 -0.125 
-0.625 0.5 0 
0 0.5 -0.375 
-0.625 0.5 -0.375 
-1.875 0.5 -0.125 
-1.875 0.5 0 
2.5 0.125 0 
2.5 0 0.125 
2.5 0.375 0 
2.5 0.375 0.125 
2.5 0.125 0.375 
2.5 0 0.375 
2.5 -0.125 0 
2.5 0 -0.125 
2.5 -0.375 0 
2.5 -0.375 -0.125 
2.5 -0.125 -0.375 
2.5 0 -0.375 
-1.875 0.375 -0.5 
-2.5 0.375 -0.5 
-0.625 0.125 -0.5 
-2.5 0.125 -0.5 
0.625 -0.125 -0.5 
1.875 -0.375 -0.5 
1.875 -0.5 -0.5 
0.625 -0.5 -0.5 
-2.5 -0.125 -0.5 
-0.625 -0.5 -0.5 
-1.875 -0.5 -0.5 
-2.5 -0.375 -0.5 
2.5 -0.375 -0.5 
2.5 -0.125 -0.5 
-1.875 0.5 -0.5 
-0.625 0.5 -0.5 
2.5 0.125 -0.5 
0.625 0.5 -0.5 
1.875 0.5 -0.5 
2.5 0.375 -0.5 
-2.5 -0.375 0.375 
-2.5 -0.5 0.375 
-2.5 -0.125 0.125 
-2.5 -0.5 0.125 
-2.5 0.125 -0.125 
-2.5 0.375 -0.375 
-2.5 -0.5 -0.125 
-2.5 -0.5 -0.375 
-2.5 0.5 -0.375 
-2.5 0.5 -0.125 
-2.5 -0.375 0.5 
-2.5 -0.125 0.5 
-2.5 0.5 0.125 
-2.5 0.125 0.5 
-2.5 0.375 0.5 
-2.5 0.5 0.375 
1.875 -0.5 -0.375 
0.625 -0.5 -0.125 
-0.625 -0.5 0.125 
-1.875 -0.5 0.375 
-1.875 -0.5 0.5 
-0.625 -0.5 0.5 
2.5 -0.5 -0.375 
2.5 -0.5 -0.125 
0.625 -0.5 0.5 
2.5 -0.5 0.125 
2.5 -0.5 0.375 
1.875 -0.5 0.5 
-1.875 0.375 0.5 
-1.875 0.5 0.5 
-0.625 0.125 0.5 
-0.625 0.5 0.5 
0.625 -0.125 0.5 
1.875 -0.375 0.5 
2.5 -0.375 0.5 
2.5 -0.125 0.5 
0.625 0.5 0.5 
2.5 0.125 0.5 
2.5 0.375 0.5 
1.875 0.5 0.5 
1.875 0.5 -0.375 
2.5 0.5 -0.375 
0.625 0.5 -0.125 
2.5 0.5 -0.125 
-0.625 0.5 0.125 
-1.875 0.5 0.375 
2.5 0.5 0.125 
2.5 0.5 0.375 
2.5 -0.375 0.375 
2.5 -0.125 0.125 
2.5 0.125 -0.125 
2.5 0.375 -0.375 
3 98 99 100 
3 101 102 103 
3 104 105 106 
3 107 108 109 
3 110 111 112 
3 113 114 115 
3 116 117 118 
3 119 120 121 
3 122 123 124 
3 125 126 127 
3 128 129 130 
3 131 132 133 
3 134 135 136 
3 137 138 139 
3 140 141 142 
3 143 144 145 
3 146 147 148 
3 149 150 151 
3 152 153 154 
3 155 156 157 
3 158 159 160 
3 161 162 163 
3 164 165 166 
3 167 168 169 
3 170 171 172 
3 173 174 175 
3 176 177 178 
3 179 180 181 
3 182 183 184 
3 185 186 187 
3 188 189 190 
3 191 192 193 
3 194 195 196 
3 197 198 199 
3 200 201 202 
3 203 204 205 
3 206 207 208 
3 209 210 211 
3 212 213 214 
3 215 216 217 
3 218 219 220 
3 221 222 223 
3 224 225 226 
3 227 228 229 
3 230 231 232 
3 233 234 235 
3 236 237 238 
3 239 240 241 
3 242 100 243 
3 244 245 98 
3 99 246 247 
3 248 103 249 
3 250 251 101 
3 102 252 253 
3 254 106 255 
3 256 257 104 
3 105 258 259 
3 260 109 261 
3 262 263 107 
3 108 264 265 
3 266 112 267 
3 268 269 110 
3 111 270 271 
3 272 115 273 
3 274 275 113 
3 114 276 277 
3 278 118 279 
3 280 281 116 
3 117 282 283 
3 284 121 285 
3 286 287 119 
3 120 288 289 
3 290 124 291 
3 292 293 122 
3 123 294 295 
3 296 127 297 
3 298 299 125 
3 126 300 301 
3 302 130 303 
3 304 305 128 
3 129 306 307 
3 308 133 309 
3 310 311 131 
3 132 312 313 
3 314 136 315 
3 316 243 134 
3 135 247 317 
3 318 139 242 
3 319 320 137 
3 138 321 244 
3 246 142 322 
3 245 323 140 
3 141 324 325 
3 319 145 326 
3 318 249 143 
3 144 253 327 
3 316 148 248 
3 314 328 146 
3 147 329 250 
3 252 151 330 
3 251 331 149 
3 150 332 333 
3 334 154 335 
3 336 255 152 
3 153 259 337 
3 338 157 254 
3 339 315 155 
3 156 317 256 
3 258 160 340 
3 257 322 158 
3 159 325 341 
3 339 163 342 
3 338 261 161 
3 162 265 343 
3 336 166 260 
3 334 344 164 
3 165 345 262 
3 264 169 346 
3 263 347 167 
3 168 348 349 
3 350 172 320 
3 351 267 170 
3 171 271 321 
3 352 175 266 
3 353 335 173 
3 174 337 268 
3 270 178 323 
3 269 340 176 
3 177 341 324 
3 353 181 354 
3 352 273 179 
3 180 277 355 
3 351 184 272 
3 350 356 182 
3 183 357 274 
3 276 187 358 
3 275 359 185 
3 186 360 361 
3 362 190 363 
3 364 279 188 
3 189 283 365 
3 366 193 278 
3 367 368 191 
3 192 369 280 
3 282 196 370 
3 281 371 194 
3 195 372 373 
3 367 199 361 
3 366 285 197 
3 198 289 358 
3 364 202 284 
3 362 348 200 
3 201 347 286 
3 288 205 355 
3 287 345 203 
3 204 344 354 
3 374 208 375 
3 376 291 206 
3 207 295 377 
3 378 211 290 
3 379 363 209 
3 210 365 292 
3 294 214 380 
3 293 370 212 
3 213 373 381 
3 379 217 349 
3 378 297 215 
3 216 301 346 
3 376 220 296 
3 374 332 218 
3 219 331 298 
3 300 223 343 
3 299 329 221 
3 222 328 342 
3 382 226 368 
3 383 303 224 
3 225 307 369 
3 384 229 302 
3 385 375 227 
3 228 377 304 
3 306 232 371 
3 305 380 230 
3 231 381 372 
3 385 235 333 
3 384 309 233 
3 234 313 330 
3 383 238 308 
3 382 360 236 
3 237 359 310 
3 312 241 327 
3 311 357 239 
3 240 356 326 
3 26 98 100 
3 98 27 99 
3 100 99 28 
3 29 101 103 
3 101 30 102 
3 103 102 31 
3 32 104 106 
3 104 33 105 
3 106 105 34 
3 35 107 109 
3 107 36 108 
3 109 108 37 
3 38 110 112 
3 110 39 111 
3 112 111 40 
3 41 113 115 
3 113 42 114 
3 115 114 43 
3 44 116 118 
3 116 45 117 
3 118 117 46 
3 47 119 121 
3 119 48 120 
3 121 120 49 
3 50 122 124 
3 122 51 123 
3 124 123 52 
3 53 125 127 
3 125 54 126 
3 127 126 55 
3 56 128 130 
3 128 57 129 
3 130 129 58 
3 59 131 133 
3 131 60 132 
3 133 132 61 
3 62 134 136 
3 134 28 135 
3 136 135 63 
3 64 137 139 
3 137 65 138 
3 139 138 26 
3 27 140 142 
3 140 66 141 
3 142 141 67 
3 64 143 145 
3 143 31 144 
3 145 144 68 
3 62 146 148 
3 146 69 147 
3 148 147 29 
3 30 149 151 
3 149 70 150 
3 151 150 71 
3 72 152 154 
3 152 34 153 
3 154 153 73 
3 74 155 157 
3 155 63 156 
3 157 156 32 
3 33 158 160 
3 158 67 159 
3 160 159 75 
3 74 161 163 
3 161 37 162 
3 163 162 76 
3 72 164 166 
3 164 77 165 
3 166 165 35 
3 36 167 169 
3 167 78 168 
3 169 168 79 
3 80 170 172 
3 170 40 171 
3 172 171 65 
3 81 173 175 
3 173 73 174 
3 175 174 38 
3 39 176 178 
3 176 75 177 
3 178 177 66 
3 81 179 181 
3 179 43 180 
3 181 180 82 
3 80 182 184 
3 182 83 183 
3 184 183 41 
3 42 185 187 
3 185 84 186 
3 187 186 85 
3 86 188 190 
3 188 46 189 
3 190 189 87 
3 88 191 193 
3 191 89 192 
3 193 192 44 
3 45 194 196 
3 194 90 195 
3 196 195 91 
3 88 197 199 
3 197 49 198 
3 199 198 85 
3 86 200 202 
3 200 78 201 
3 202 201 47 
3 48 203 205 
3 203 77 204 
3 205 204 82 
3 92 206 208 
3 206 52 207 
3 208 207 93 
3 94 209 211 
3 209 87 210 
3 211 210 50 
3 51 212 214 
3 212 91 213 
3 214 213 95 
3 94 215 217 
3 215 55 216 
3 217 216 79 
3 92 218 220 
3 218 70 219 
3 220 219 53 
3 54 221 223 
3 221 69 222 
3 223 222 76 
3 96 224 226 
3 224 58 225 
3 226 225 89 
3 97 227 229 
3 227 93 228 
3 229 228 56 
3 57 230 232 
3 230 95 231 
3 232 231 90 
3 97 233 235 
3 233 61 234 
3 235 234 71 
3 96 236 238 
3 236 84 237 
3 238 237 59 
3 60 239 241 
3 239 83 240 
3 241 240 68 
3 8 242 243 
3 242 26 100 
3 243 100 28 
3 26 244 98 
3 244 9 245 
3 98 245 27 
3 28 99 247 
3 99 27 246 
3 247 246 10 
3 8 248 249 
3 248 29 103 
3 249 103 31 
3 29 250 101 
3 250 11 251 
3 101 251 30 
3 31 102 253 
3 102 30 252 
3 253 252 12 
3 13 254 255 
3 254 32 106 
3 255 106 34 
3 32 256 104 
3 256 10 257 
3 104 257 33 
3 34 105 259 
3 105 33 258 
3 259 258 14 
3 13 260 261 
3 260 35 109 
3 261 109 37 
3 35 262 107 
3 262 15 263 
3 107 263 36 
3 37 108 265 
3 108 36 264 
3 265 264 16 
3 17 266 267 
3 266 38 112 
3 267 112 40 
3 38 268 110 
3 268 14 269 
3 110 269 39 
3 40 111 271 
3 111 39 270 
3 271 270 9 
3 17 272 273 
3 272 41 115 
3 273 115 43 
3 41 274 113 
3 274 18 275 
3 113 275 42 
3 43 114 277 
3 114 42 276 
3 277 276 19 
3 20 278 279 
3 278 44 118 
3 279 118 46 
3 44 280 116 
3 280 21 281 
3 116 281 45 
3 46 117 283 
3 117 45 282 
3 283 282 22 
3 20 284 285 
3 284 47 121 
3 285 121 49 
3 47 286 119 
3 286 15 287 
3 119 287 48 
3 49 120 289 
3 120 48 288 
3 289 288 19 
3 23 290 291 
3 290 50 124 
3 291 124 52 
3 50 292 122 
3 292 22 293 
3 122 293 51 
3 52 123 295 
3 123 51 294 
3 295 294 24 
3 23 296 297 
3 296 53 127 
3 297 127 55 
3 53 298 125 
3 298 11 299 
3 125 299 54 
3 55 126 301 
3 126 54 300 
3 301 300 16 
3 25 302 303 
3 302 56 130 
3 303 130 58 
3 56 304 128 
3 304 24 305 
3 128 305 57 
3 58 129 307 
3 129 57 306 
3 307 306 21 
3 25 308 309 
3 308 59 133 
3 309 133 61 
3 59 310 131 
3 310 18 311 
3 131 311 60 
3 61 132 313 
3 132 60 312 
3 313 312 12 
3 2 314 315 
3 314 62 136 
3 315 136 63 
3 62 316 134 
3 316 8 243 
3 134 243 28 
3 63 135 317 
3 135 28 247 
3 317 247 10 
3 8 318 242 
3 318 64 139 
3 242 139 26 
3 64 319 137 
3 319 1 320 
3 137 320 65 
3 26 138 244 
3 138 65 321 
3 244 321 9 
3 10 246 322 
3 246 27 142 
3 322 142 67 
3 27 245 140 
3 245 9 323 
3 140 323 66 
3 67 141 325 
3 141 66 324 
3 325 324 0 
3 1 319 326 
3 319 64 145 
3 326 145 68 
3 64 318 143 
3 318 8 249 
3 143 249 31 
3 68 144 327 
3 144 31 253 
3 327 253 12 
3 8 316 248 
3 316 62 148 
3 248 148 29 
3 62 314 146 
3 314 2 328 
3 146 328 69 
3 29 147 250 
3 147 69 329 
3 250 329 11 
3 12 252 330 
3 252 30 151 
3 330 151 71 
3 30 251 149 
3 251 11 331 
3 149 331 70 
3 71 150 333 
3 150 70 332 
3 333 332 3 
3 4 334 335 
3 334 72 154 
3 335 154 73 
3 72 336 152 
3 336 13 255 
3 152 255 34 
3 73 153 337 
3 153 34 259 
3 337 259 14 
3 13 338 254 
3 338 74 157 
3 254 157 32 
3 74 339 155 
3 339 2 315 
3 155 315 63 
3 32 156 256 
3 156 63 317 
3 256 317 10 
3 14 258 340 
3 258 33 160 
3 340 160 75 
3 33 257 158 
3 257 10 322 
3 158 322 67 
3 75 159 341 
3 159 67 325 
3 341 325 0 
3 2 339 342 
3 339 74 163 
3 342 163 76 
3 74 338 161 
3 338 13 261 
3 161 261 37 
3 76 162 343 
3 162 37 265 
3 343 265 16 
3 13 336 260 
3 336 72 166 
3 260 166 35 
3 72 334 164 
3 334 4 344 
3 164 344 77 
3 35 165 262 
3 165 77 345 
3 262 345 15 
3 16 264 346 
3 264 36 169 
3 346 169 79 
3 36 263 167 
3 263 15 347 
3 167 347 78 
3 79 168 349 
3 168 78 348 
3 349 348 6 
3 1 350 320 
3 350 80 172 
3 320 172 65 
3 80 351 170 
3 351 17 267 
3 170 267 40 
3 65 171 321 
3 171 40 271 
3 321 271 9 
3 17 352 266 
3 352 81 175 
3 266 175 38 
3 81 353 173 
3 353 4 335 
3 173 335 73 
3 38 174 268 
3 174 73 337 
3 268 337 14 
3 9 270 323 
3 270 39 178 
3 323 178 66 
3 39 269 176 
3 269 14 340 
3 176 340 75 
3 66 177 324 
3 177 75 341 
3 324 341 0 
3 4 353 354 
3 353 81 181 
3 354 181 82 
3 81 352 179 
3 352 17 273 
3 179 273 43 
3 82 180 355 
3 180 43 277 
3 355 277 19 
3 17 351 272 
3 351 80 184 
3 272 184 41 
3 80 350 182 
3 350 1 356 
3 182 356 83 
3 41 183 274 
3 183 83 357 
3 274 357 18 
3 19 276 358 
3 276 42 187 
3 358 187 85 
3 42 275 185 
3 275 18 359 
3 185 359 84 
3 85 186 361 
3 186 84 360 
3 361 360 5 
3 6 362 363 
3 362 86 190 
3 363 190 87 
3 86 364 188 
3 364 20 279 
3 188 279 46 
3 87 189 365 
3 189 46 283 
3 365 283 22 
3 20 366 278 
3 366 88 193 
3 278 193 44 
3 88 367 191 
3 367 5 368 
3 191 368 89 
3 44 192 280 
3 192 89 369 
3 280 369 21 
3 22 282 370 
3 282 45 196 
3 370 196 91 
3 45 281 194 
3 281 21 371 
3 194 371 90 
3 91 195 373 
3 195 90 372 
3 373 372 7 
3 5 367 361 
3 367 88 199 
3 361 199 85 
3 88 366 197 
3 366 20 285 
3 197 285 49 
3 85 198 358 
3 198 49 289 
3 358 289 19 
3 20 364 284 
3 364 86 202 
3 284 202 47 
3 86 362 200 
3 362 6 348 
3 200 348 78 
3 47 201 286 
3 201 78 347 
3 286 347 15 
3 19 288 355 
3 288 48 205 
3 355 205 82 
3 48 287 203 
3 287 15 345 
3 203 345 77 
3 82 204 354 
3 204 77 344 
3 354 344 4 
3 3 374 375 
3 374 92 208 
3 375 208 93 
3 92 376 206 
3 376 23 291 
3 206 291 52 
3 93 207 377 
3 207 52 295 
3 377 295 24 
3 23 378 290 
3 378 94 211 
3 290 211 50 
3 94 379 209 
3 379 6 363 
3 209 363 87 
3 50 210 292 
3 210 87 365 
3 292 365 22 
3 24 294 380 
3 294 51 214 
3 380 214 95 
3 51 293 212 
3 293 22 370 
3 212 370 91 
3 95 213 381 
3 213 91 373 
3 381 373 7 
3 6 379 349 
3 379 94 217 
3 349 217 79 
3 94 378 215 
3 378 23 297 
3 215 297 55 
3 79 216 346 
3 216 55 301 
3 346 301 16 
3 23 376 296 
3 376 92 220 
3 296 220 53 
3 92 374 218 
3 374 3 332 
3 218 332 70 
3 53 219 298 
3 219 70 331 
3 298 331 11 
3 16 300 343 
3 300 54 223 
3 343 223 76 
3 54 299 221 
3 299 11 329 
3 221 329 69 
3 76 222 342 
3 222 69 328 
3 342 328 2 
3 5 382 368 
3 382 96 226 
3 368 226 89 
3 96 383 224 
3 383 25 303 
3 224 303 58 
3 89 225 369 
3 225 58 307 
3 369 307 21 
3 25 384 302 
3 384 97 229 
3 302 229 56 
3 97 385 227 
3 385 3 375 
3 227 375 93 
3 56 228 304 
3 228 93 377 
3 304 377 24 
3 21 306 371 
3 306 57 232 
3 371 232 90 
3 57 305 230 
3 305 24 380 
3 230 380 95 
3 90 231 372 
3 231 95 381 
3 372 381 7 
3 3 385 333 
3 385 97 235 
3 333 235 71 
3 97 384 233 
3 384 25 309 
3 233 309 61 
3 71 234 330 
3 234 61 313 
3 330 313 12 
3 25 383 308 
3 383 96 238 
3 308 238 59 
3 96 382 236 
3 382 5 360 
3 236 360 84 
3 59 237 310 
3 237 84 359 
3 310 359 18 
3 12 312 327 
3 312 60 241 
3 327 241 68 
3 60 311 239 
3 311 18 357 
3 239 357 83 
3 68 240 326 
3 240 83 356 
3 326 356 1 
